TITLE: nbc.mp4

001  AY       B  C        00:00:00:00 00:00:02:00 00:00:00:00 00:00:02:00 
* FROM CLIP NAME: nbc.mp4

002  AX       B  C        00:00:02:00 00:00:20:05 00:00:02:00 00:00:20:05 
* FROM CLIP NAME: nbc.mp4

003  AY       B  C        00:00:20:05 00:00:20:08 00:00:20:05 00:00:20:08 
* FROM CLIP NAME: nbc.mp4

004  AX       B  C        00:00:20:08 00:00:20:12 00:00:20:08 00:00:20:12 
* FROM CLIP NAME: nbc.mp4

005  AY       B  C        00:00:20:12 00:00:22:21 00:00:20:12 00:00:22:21 
* FROM CLIP NAME: nbc.mp4

006  AX       B  C        00:00:22:21 00:00:24:21 00:00:22:21 00:00:24:21 
* FROM CLIP NAME: nbc.mp4

007  AY       B  C        00:00:24:21 00:00:35:23 00:00:24:21 00:00:35:23 
* FROM CLIP NAME: nbc.mp4

008  AX       B  C        00:00:35:23 00:00:37:23 00:00:35:23 00:00:37:23 
* FROM CLIP NAME: nbc.mp4

009  AY       B  C        00:00:37:23 00:00:39:23 00:00:37:23 00:00:39:23 
* FROM CLIP NAME: nbc.mp4

010  AX       B  C        00:00:39:23 00:00:41:23 00:00:39:23 00:00:41:23 
* FROM CLIP NAME: nbc.mp4

011  AY       B  C        00:00:41:23 00:00:43:23 00:00:41:23 00:00:43:23 
* FROM CLIP NAME: nbc.mp4

012  AX       B  C        00:00:43:23 00:00:45:01 00:00:43:23 00:00:45:01 
* FROM CLIP NAME: nbc.mp4

013  AY       B  C        00:00:45:01 00:00:54:05 00:00:45:01 00:00:54:05 
* FROM CLIP NAME: nbc.mp4

014  AX       B  C        00:00:54:05 00:00:54:15 00:00:54:05 00:00:54:15 
* FROM CLIP NAME: nbc.mp4

015  AY       B  C        00:00:54:15 00:00:54:17 00:00:54:15 00:00:54:17 
* FROM CLIP NAME: nbc.mp4

016  AX       B  C        00:00:54:17 00:00:54:21 00:00:54:17 00:00:54:21 
* FROM CLIP NAME: nbc.mp4

017  AY       B  C        00:00:54:21 00:00:54:22 00:00:54:21 00:00:54:22 
* FROM CLIP NAME: nbc.mp4

018  AX       B  C        00:00:54:22 00:00:54:22 00:00:54:22 00:00:54:22 
* FROM CLIP NAME: nbc.mp4

019  AY       B  C        00:00:54:22 00:00:55:00 00:00:54:22 00:00:55:00 
* FROM CLIP NAME: nbc.mp4

020  AX       B  C        00:00:55:00 00:00:57:01 00:00:55:00 00:00:57:01 
* FROM CLIP NAME: nbc.mp4

021  AY       B  C        00:00:57:01 00:01:34:02 00:00:57:01 00:01:34:02 
* FROM CLIP NAME: nbc.mp4

022  AX       B  C        00:01:34:02 00:01:38:02 00:01:34:02 00:01:38:02 
* FROM CLIP NAME: nbc.mp4

023  AY       B  C        00:01:38:02 00:01:40:02 00:01:38:02 00:01:40:02 
* FROM CLIP NAME: nbc.mp4

024  AX       B  C        00:01:40:02 00:01:51:02 00:01:40:02 00:01:51:02 
* FROM CLIP NAME: nbc.mp4

025  AY       B  C        00:01:51:02 00:02:17:03 00:01:51:02 00:02:17:03 
* FROM CLIP NAME: nbc.mp4

026  AX       B  C        00:02:17:03 00:02:46:19 00:02:17:03 00:02:46:19 
* FROM CLIP NAME: nbc.mp4

027  AY       B  C        00:02:46:19 00:03:57:05 00:02:46:19 00:03:57:05 
* FROM CLIP NAME: nbc.mp4

028  AX       B  C        00:03:57:05 00:03:59:05 00:03:57:05 00:03:59:05 
* FROM CLIP NAME: nbc.mp4

029  AY       B  C        00:03:59:05 00:04:10:21 00:03:59:05 00:04:10:21 
* FROM CLIP NAME: nbc.mp4

030  AX       B  C        00:04:10:21 00:05:05:15 00:04:10:21 00:05:05:15 
* FROM CLIP NAME: nbc.mp4

031  AY       B  C        00:05:05:15 00:05:30:08 00:05:05:15 00:05:30:08 
* FROM CLIP NAME: nbc.mp4

032  AX       B  C        00:05:30:08 00:05:55:08 00:05:30:08 00:05:55:08 
* FROM CLIP NAME: nbc.mp4

033  AY       B  C        00:05:55:08 00:06:24:22 00:05:55:08 00:06:24:22 
* FROM CLIP NAME: nbc.mp4

034  AX       B  C        00:06:24:22 00:06:42:01 00:06:24:22 00:06:42:01 
* FROM CLIP NAME: nbc.mp4

035  AY       B  C        00:06:42:01 00:07:26:05 00:06:42:01 00:07:26:05 
* FROM CLIP NAME: nbc.mp4

036  AX       B  C        00:07:26:05 00:07:55:11 00:07:26:05 00:07:55:11 
* FROM CLIP NAME: nbc.mp4

037  AY       B  C        00:07:55:11 00:08:05:09 00:07:55:11 00:08:05:09 
* FROM CLIP NAME: nbc.mp4

038  AX       B  C        00:08:05:09 00:08:15:09 00:08:05:09 00:08:15:09 
* FROM CLIP NAME: nbc.mp4

039  AY       B  C        00:08:15:09 00:08:34:12 00:08:15:09 00:08:34:12 
* FROM CLIP NAME: nbc.mp4

040  AX       B  C        00:08:34:12 00:10:06:07 00:08:34:12 00:10:06:07 
* FROM CLIP NAME: nbc.mp4

041  AY       B  C        00:10:06:07 00:10:14:07 00:10:06:07 00:10:14:07 
* FROM CLIP NAME: nbc.mp4

042  AX       B  C        00:10:14:07 00:10:36:15 00:10:14:07 00:10:36:15 
* FROM CLIP NAME: nbc.mp4

043  AY       B  C        00:10:36:15 00:10:38:15 00:10:36:15 00:10:38:15 
* FROM CLIP NAME: nbc.mp4

044  AX       B  C        00:10:38:15 00:10:40:15 00:10:38:15 00:10:40:15 
* FROM CLIP NAME: nbc.mp4

045  AY       B  C        00:10:40:15 00:10:42:15 00:10:40:15 00:10:42:15 
* FROM CLIP NAME: nbc.mp4

046  AX       B  C        00:10:42:15 00:10:54:14 00:10:42:15 00:10:54:14 
* FROM CLIP NAME: nbc.mp4

047  AY       B  C        00:10:54:14 00:11:16:09 00:10:54:14 00:11:16:09 
* FROM CLIP NAME: nbc.mp4

048  AX       B  C        00:11:16:09 00:11:19:12 00:11:16:09 00:11:19:12 
* FROM CLIP NAME: nbc.mp4

049  AY       B  C        00:11:19:12 00:11:28:15 00:11:19:12 00:11:28:15 
* FROM CLIP NAME: nbc.mp4

050  AX       B  C        00:11:28:15 00:12:16:11 00:11:28:15 00:12:16:11 
* FROM CLIP NAME: nbc.mp4

051  AY       B  C        00:12:16:11 00:12:24:19 00:12:16:11 00:12:24:19 
* FROM CLIP NAME: nbc.mp4

052  AX       B  C        00:12:24:19 00:12:49:18 00:12:24:19 00:12:49:18 
* FROM CLIP NAME: nbc.mp4

053  AY       B  C        00:12:49:18 00:12:51:18 00:12:49:18 00:12:51:18 
* FROM CLIP NAME: nbc.mp4

054  AX       B  C        00:12:51:18 00:12:53:18 00:12:51:18 00:12:53:18 
* FROM CLIP NAME: nbc.mp4

055  AY       B  C        00:12:53:18 00:13:09:16 00:12:53:18 00:13:09:16 
* FROM CLIP NAME: nbc.mp4

056  AX       B  C        00:13:09:16 00:13:38:00 00:13:09:16 00:13:38:00 
* FROM CLIP NAME: nbc.mp4

057  AY       B  C        00:13:38:00 00:13:56:08 00:13:38:00 00:13:56:08 
* FROM CLIP NAME: nbc.mp4

058  AX       B  C        00:13:56:08 00:14:46:10 00:13:56:08 00:14:46:10 
* FROM CLIP NAME: nbc.mp4

059  AY       B  C        00:14:46:10 00:15:32:22 00:14:46:10 00:15:32:22 
* FROM CLIP NAME: nbc.mp4

060  AX       B  C        00:15:32:22 00:15:42:00 00:15:32:22 00:15:42:00 
* FROM CLIP NAME: nbc.mp4

061  AY       B  C        00:15:42:00 00:16:04:23 00:15:42:00 00:16:04:23 
* FROM CLIP NAME: nbc.mp4

062  AX       B  C        00:16:04:23 00:17:34:00 00:16:04:23 00:17:34:00 
* FROM CLIP NAME: nbc.mp4

063  AY       B  C        00:17:34:00 00:17:52:22 00:17:34:00 00:17:52:22 
* FROM CLIP NAME: nbc.mp4

064  AX       B  C        00:17:52:22 00:18:33:21 00:17:52:22 00:18:33:21 
* FROM CLIP NAME: nbc.mp4

065  AY       B  C        00:18:33:21 00:18:45:20 00:18:33:21 00:18:45:20 
* FROM CLIP NAME: nbc.mp4

066  AX       B  C        00:18:45:20 00:19:18:03 00:18:45:20 00:19:18:03 
* FROM CLIP NAME: nbc.mp4

067  AY       B  C        00:19:18:03 00:20:18:05 00:19:18:03 00:20:18:05 
* FROM CLIP NAME: nbc.mp4

068  AX       B  C        00:20:18:05 00:20:31:05 00:20:18:05 00:20:31:05 
* FROM CLIP NAME: nbc.mp4

069  AY       B  C        00:20:31:05 00:20:39:05 00:20:31:05 00:20:39:05 
* FROM CLIP NAME: nbc.mp4

070  AX       B  C        00:20:39:05 00:20:41:05 00:20:39:05 00:20:41:05 
* FROM CLIP NAME: nbc.mp4

071  AY       B  C        00:20:41:05 00:21:40:12 00:20:41:05 00:21:40:12 
* FROM CLIP NAME: nbc.mp4

072  AX       B  C        00:21:40:12 00:23:05:09 00:21:40:12 00:23:05:09 
* FROM CLIP NAME: nbc.mp4

073  AY       B  C        00:23:05:09 00:23:20:09 00:23:05:09 00:23:20:09 
* FROM CLIP NAME: nbc.mp4

074  AX       B  C        00:23:20:09 00:24:28:08 00:23:20:09 00:24:28:08 
* FROM CLIP NAME: nbc.mp4

075  AY       B  C        00:24:28:08 00:24:30:08 00:24:28:08 00:24:30:08 
* FROM CLIP NAME: nbc.mp4

076  AX       B  C        00:24:30:08 00:24:57:00 00:24:30:08 00:24:57:00 
* FROM CLIP NAME: nbc.mp4

077  AY       B  C        00:24:57:00 00:25:03:12 00:24:57:00 00:25:03:12 
* FROM CLIP NAME: nbc.mp4

078  AX       B  C        00:25:03:12 00:25:44:04 00:25:03:12 00:25:44:04 
* FROM CLIP NAME: nbc.mp4

079  AY       B  C        00:25:44:04 00:25:54:13 00:25:44:04 00:25:54:13 
* FROM CLIP NAME: nbc.mp4

080  AX       B  C        00:25:54:13 00:26:13:13 00:25:54:13 00:26:13:13 
* FROM CLIP NAME: nbc.mp4

081  AY       B  C        00:26:13:13 00:27:14:23 00:26:13:13 00:27:14:23 
* FROM CLIP NAME: nbc.mp4

082  AX       B  C        00:27:14:23 00:27:29:22 00:27:14:23 00:27:29:22 
* FROM CLIP NAME: nbc.mp4

083  AY       B  C        00:27:29:22 00:29:01:16 00:27:29:22 00:29:01:16 
* FROM CLIP NAME: nbc.mp4

084  AX       B  C        00:29:01:16 00:29:07:17 00:29:01:16 00:29:07:17 
* FROM CLIP NAME: nbc.mp4

085  AY       B  C        00:29:07:17 00:29:26:18 00:29:07:17 00:29:26:18 
* FROM CLIP NAME: nbc.mp4

086  AX       B  C        00:29:26:18 00:29:28:18 00:29:26:18 00:29:28:18 
* FROM CLIP NAME: nbc.mp4

087  AY       B  C        00:29:28:18 00:29:30:18 00:29:28:18 00:29:30:18 
* FROM CLIP NAME: nbc.mp4

088  AX       B  C        00:29:30:18 00:29:33:18 00:29:30:18 00:29:33:18 
* FROM CLIP NAME: nbc.mp4

089  AY       B  C        00:29:33:18 00:29:38:13 00:29:33:18 00:29:38:13 
* FROM CLIP NAME: nbc.mp4

090  AX       B  C        00:29:38:13 00:29:43:18 00:29:38:13 00:29:43:18 
* FROM CLIP NAME: nbc.mp4

091  AY       B  C        00:29:43:18 00:29:58:09 00:29:43:18 00:29:58:09 
* FROM CLIP NAME: nbc.mp4

092  AX       B  C        00:29:58:09 00:30:06:20 00:29:58:09 00:30:06:20 
* FROM CLIP NAME: nbc.mp4

093  AY       B  C        00:30:06:20 00:30:12:20 00:30:06:20 00:30:12:20 
* FROM CLIP NAME: nbc.mp4

094  AX       B  C        00:30:12:20 00:30:48:22 00:30:12:20 00:30:48:22 
* FROM CLIP NAME: nbc.mp4

095  AY       B  C        00:30:48:22 00:30:50:20 00:30:48:22 00:30:50:20 
* FROM CLIP NAME: nbc.mp4

096  AX       B  C        00:30:50:20 00:30:52:20 00:30:50:20 00:30:52:20 
* FROM CLIP NAME: nbc.mp4

097  AY       B  C        00:30:52:20 00:30:56:20 00:30:52:20 00:30:56:20 
* FROM CLIP NAME: nbc.mp4

098  AX       B  C        00:30:56:20 00:31:27:21 00:30:56:20 00:31:27:21 
* FROM CLIP NAME: nbc.mp4

099  AY       B  C        00:31:27:21 00:31:31:21 00:31:27:21 00:31:31:21 
* FROM CLIP NAME: nbc.mp4

100  AX       B  C        00:31:31:21 00:31:33:21 00:31:31:21 00:31:33:21 
* FROM CLIP NAME: nbc.mp4

101  AY       B  C        00:31:33:21 00:31:37:12 00:31:33:21 00:31:37:12 
* FROM CLIP NAME: nbc.mp4

102  AX       B  C        00:31:37:12 00:31:56:18 00:31:37:12 00:31:56:18 
* FROM CLIP NAME: nbc.mp4

103  AY       B  C        00:31:56:18 00:32:00:18 00:31:56:18 00:32:00:18 
* FROM CLIP NAME: nbc.mp4

104  AX       B  C        00:32:00:18 00:32:03:14 00:32:00:18 00:32:03:14 
* FROM CLIP NAME: nbc.mp4

105  AY       B  C        00:32:03:14 00:32:30:11 00:32:03:14 00:32:30:11 
* FROM CLIP NAME: nbc.mp4

106  AX       B  C        00:32:30:11 00:32:33:22 00:32:30:11 00:32:33:22 
* FROM CLIP NAME: nbc.mp4

107  AY       B  C        00:32:33:22 00:32:35:22 00:32:33:22 00:32:35:22 
* FROM CLIP NAME: nbc.mp4

108  AX       B  C        00:32:35:22 00:32:37:22 00:32:35:22 00:32:37:22 
* FROM CLIP NAME: nbc.mp4

109  AY       B  C        00:32:37:22 00:32:41:23 00:32:37:22 00:32:41:23 
* FROM CLIP NAME: nbc.mp4

110  AX       B  C        00:32:41:23 00:32:43:23 00:32:41:23 00:32:43:23 
* FROM CLIP NAME: nbc.mp4

111  AY       B  C        00:32:43:23 00:32:45:23 00:32:43:23 00:32:45:23 
* FROM CLIP NAME: nbc.mp4

112  AX       B  C        00:32:45:23 00:32:58:23 00:32:45:23 00:32:58:23 
* FROM CLIP NAME: nbc.mp4

113  AY       B  C        00:32:58:23 00:33:02:21 00:32:58:23 00:33:02:21 
* FROM CLIP NAME: nbc.mp4

114  AX       B  C        00:33:02:21 00:33:23:00 00:33:02:21 00:33:23:00 
* FROM CLIP NAME: nbc.mp4

115  AY       B  C        00:33:23:00 00:33:40:00 00:33:23:00 00:33:40:00 
* FROM CLIP NAME: nbc.mp4

116  AX       B  C        00:33:40:00 00:34:36:01 00:33:40:00 00:34:36:01 
* FROM CLIP NAME: nbc.mp4

117  AY       B  C        00:34:36:01 00:34:40:01 00:34:36:01 00:34:40:01 
* FROM CLIP NAME: nbc.mp4

